<?xml version="1.0" encoding="utf-8"?>
<!-- Generator: Adobe Illustrator 19.0.0, SVG Export Plug-In . SVG Version: 6.00 Build 0)  -->
<svg version="1.1" id="Layer_1" xmlns="http://www.w3.org/2000/svg" xmlns:xlink="http://www.w3.org/1999/xlink" x="0px" y="0px"
	 viewBox="0 0 200 200" style="enable-background:new 0 0 200 200;" xml:space="preserve">
<style type="text/css">
	.st0{display:none;}
	.st1{display:inline;}
	.st2{fill:#471D17;}
	.st3{display:inline;fill:#471D17;}
	.st4{display:inline;fill:#EFE898;}
	.st5{display:inline;fill:#F5F0C9;}
	.st6{fill:#E84610;}
	.st7{fill:#EFE898;}
	.st8{fill:#F49600;}
	.st9{display:inline;fill:#F49600;}
</style>
<g class="st0">
	<g class="st1">
		<path class="st2" d="M46.3,61.8l0.6-0.9l-5.3-3.8L40.9,58l-1.5-1.1l2.9-4.1c0.3-0.4,0.6-0.7,0.9-0.9s0.7-0.4,1.1-0.4
			c0.4-0.1,0.8-0.1,1.2,0c0.4,0.1,0.8,0.3,1.1,0.5c0.4,0.3,0.7,0.6,0.8,0.9s0.2,0.7,0.2,1.1c0.4-0.1,0.7-0.2,1.1-0.2
			c0.4,0,0.7,0.2,1.1,0.4c0.4,0.3,0.7,0.6,0.9,0.9s0.4,0.7,0.4,1.1c0.1,0.4,0.1,0.8,0,1.2c-0.1,0.4-0.3,0.8-0.5,1.1l-3,4.2
			L46.3,61.8z M42.8,55.3l1.9,1.3l0.9-1.3c0.1-0.1,0.1-0.2,0.1-0.3s0-0.3,0-0.4s-0.1-0.3-0.2-0.4c-0.1-0.1-0.2-0.2-0.3-0.3
			c-0.1-0.1-0.2-0.1-0.4-0.2c-0.1,0-0.3-0.1-0.4-0.1s-0.3,0-0.4,0.1s-0.2,0.1-0.3,0.2L42.8,55.3z M46.2,57.7l1.9,1.4l1-1.4
			c0.1-0.1,0.1-0.2,0.1-0.4c0-0.1,0-0.3,0-0.4c0-0.1-0.1-0.3-0.2-0.4c-0.1-0.1-0.2-0.2-0.3-0.3c-0.1-0.1-0.3-0.2-0.4-0.2
			S48,56,47.9,56c-0.1,0-0.3,0-0.4,0.1c-0.1,0.1-0.2,0.1-0.3,0.2L46.2,57.7z"/>
		<path class="st2" d="M66.2,41.8l0.8-0.6l-1.2-1L63.2,42l0.4,1.5l0.9-0.6l1,1.5l-3.2,2.1l-1-1.5l0.6-0.4L59.7,36l2.3-1.5l6.9,5.5
			l0.6-0.4l1,1.5l-3.2,2.1L66.2,41.8z M62.7,40.2l1.7-1.1l-2.7-2.2L62.7,40.2z"/>
		<path class="st2" d="M81.5,25.8l4.3-0.8l0.4,1.8L85.1,27l0.6,2.9l2.7-3.4L88,24.6l3.4-0.7l0.4,2L91,26l-2.8,3.5l3.8,2.6l0.8-0.2
			l0.4,2L90,34.6l-0.4-2L85.7,30l0.7,3.4l1.1-0.2l0.4,1.8l-4.3,0.8L83.1,34l1-0.2l-1.2-6.4l-1,0.2L81.5,25.8z"/>
		<path class="st2" d="M109.5,24.1l8,1.5l-0.6,3.4l-2.2-0.4l0.3-1.4l-2.6-0.5l-0.4,2l2,0.4l-0.4,1.9l-2-0.4l-0.4,2.3l2.6,0.5
			l0.3-1.8l2.2,0.4l-0.7,3.6l-8-1.5l0.3-1.8l1.1,0.2l1.2-6.2l-1.1-0.2L109.5,24.1z"/>
		<path class="st2" d="M134.4,32.3l4.6,2.9c0.4,0.3,0.8,0.6,1.1,1c0.3,0.4,0.4,0.7,0.5,1.1c0.1,0.4,0.1,0.7,0.1,1.1s-0.2,0.7-0.4,1
			c-0.2,0.3-0.4,0.5-0.6,0.7c-0.2,0.2-0.4,0.3-0.6,0.4s-0.5,0.2-0.7,0.2c-0.3,0-0.5,0-0.8,0c0.1,0.2,0.2,0.5,0.2,0.8s0,0.6-0.2,1
			l-0.4,1.3l0.7,0.5l-1.1,1.7l-2.5-1.6l1-2.3c0.1-0.3,0.2-0.5,0.2-0.7c0-0.2,0-0.4,0-0.6c0-0.2-0.1-0.4-0.3-0.5
			c-0.1-0.2-0.3-0.3-0.5-0.5l-0.7-0.5l-1.2,1.9l0.8,0.5l-1,1.6l-3.6-2.3l1-1.6l0.9,0.6l3.5-5.5l-0.9-0.6L134.4,32.3z M136.2,35.6
			l-1.3,2.1l1.1,0.7c0.2,0.1,0.4,0.2,0.6,0.3s0.4,0.1,0.6,0.1c0.2,0,0.3-0.1,0.5-0.1c0.1-0.1,0.3-0.2,0.4-0.4c0.2-0.3,0.3-0.7,0.1-1
			c-0.1-0.3-0.4-0.7-0.9-0.9L136.2,35.6z"/>
		<path class="st2" d="M155.1,49.3l2.6,3.5l-1.5,1.1l-0.5-0.7l-1.1,2.5l2.7-0.2l-0.6-0.8l1.5-1.1l2.6,3.5l-1.5,1.1l-0.4-0.6
			l-5.1-0.1l-1.9,1.4l0.7,1l-1.5,1.1l-2.7-3.7l1.5-1.1l0.7,0.9l2-1.4l1.7-4.7l-0.5-0.7L155.1,49.3z"/>
	</g>
	<g class="st1">
		<path class="st2" d="M39.7,102l-11.5,9.2l-15-2.5c2.6,17.1,10.4,32.5,21.9,44.4l19.2-19.2C46.2,125.4,40.9,114.3,39.7,102z"/>
		<path class="st2" d="M160.3,102l11.5,9.2l15-2.5c-2.6,17.1-10.4,32.5-21.9,44.4l-19.2-19.2C153.8,125.4,159.1,114.3,160.3,102z"/>
	</g>
	<path class="st3" d="M25.5,95c0-41.1,33.4-74.5,74.5-74.5c41.1,0,74.5,33.4,74.5,74.5h3c0-42.8-34.8-77.5-77.6-77.5
		c-42.8,0-77.5,34.8-77.6,77.5H25.5z"/>
	<path class="st3" d="M44.2,95c0-30.7,25-55.8,55.8-55.8c30.7,0,55.8,25,55.8,55.8h3c0-32.4-26.4-58.8-58.8-58.8
		c-32.4,0-58.8,26.4-58.8,58.8H44.2z"/>
	<path class="st4" d="M78,112"/>
	<path class="st5" d="M66.6,87.9c0,0,2,8.4,19.1,11.8c11.8,2.3,25.2,1.5,34.2-0.8c2.7-0.8,5-1.7,6.9-2.6c0.9-0.5,1.6-1,2.1-1.5
		c2.3-2.1,3.1-2.4,3.3-2c0.6-0.5,1.1-1,1.6-1.5c-0.2-0.2-0.7-0.6-1.3-0.8c-0.3-0.3-0.4-0.8-0.4-0.8s0.7-5.5-1.1-7s-3.8-2.8-3.8-3.6
		c0-0.7,0.1-4.9-1.5-6.6c-1.6-1.6-5.2-5.5-8.1-5.8s-2.6,0.4-2.9-0.4c-0.3-0.7,0.7-3.5-0.8-4.7c-1.5-1.3-12-9.1-13.1-10.5
		c-1.1-1.4-2.2-2.4-1-3.9c0,0-3.9,0.5-4.1,4.5c-0.2,3.9-0.3,7.2-2.8,8.8c-2.6,1.6-12.7,3.8-16.6,10.2c0,0,6-2.1,14.1-2.7
		c8.1-0.6,15.1-2.4,16.2-3.6c0,0-0.4,3-8,5.1c-7.6,2.1-21.8-0.5-26.8,10c0,0,5.1-3.9,13.7-4.3c8.6-0.4,26.6,0.4,29.3-6.4
		c0,0-1.8,6.6-8.4,7.1c-6.6,0.5-17.7,0.9-17.7,0.9s15.2,2.7,14.3,3.8c-0.9,1.1-8.9,0-16.9,0s-16.2,0.4-18.4,5.2c0,0,5-2.8,16.4-1.7
		c11.4,1.1,30.1,5.2,40.5,0.5c0,0-2.8,4.5-15.9,3.6c-13-0.9-29.5-1.7-30.2,0.5s0.3,3.4,7.7,5.1c7.4,1.7,25.2,3,25.2,3
		S81.6,103.5,66.6,87.9z"/>
	<path class="st3" d="M71.1,96.4c11.8,10,28.1,12.2,28.1,12.2v31.2c-13.1-0.1-19.3-4.8-19.3-4.8L66.2,92.4l12.5,45.3
		c4.2,3.1,12.4,5.2,21.7,5.2c9.4,0,17.5-2.1,21.7-5.2l11.8-43.8C103.5,113.3,80.7,102.9,71.1,96.4z"/>
	<g class="st1">
		<path class="st2" d="M116.3,161.8c-0.1-0.1-0.2-0.2-0.3-0.3c-0.1-0.1-0.2-0.1-0.4-0.2c-0.1,0-0.3,0-0.5,0c-0.1,0-0.3,0.1-0.4,0.1
			s-0.2,0.2-0.3,0.3c-0.1,0.1-0.1,0.2-0.2,0.4c0,0.1,0,0.3,0,0.4c0,0.1,0.1,0.3,0.2,0.4c0.1,0.1,0.2,0.2,0.3,0.3
			c0.1,0.1,0.2,0.1,0.4,0.1c0.1,0,0.3,0,0.4,0c0.2,0,0.3-0.1,0.5-0.2s0.2-0.2,0.3-0.4c0-0.1,0-0.2,0.1-0.3c0-0.1,0-0.2,0-0.3
			C116.4,162,116.3,161.9,116.3,161.8z"/>
		<path class="st2" d="M127.6,160.7c-0.1-0.1-0.2-0.2-0.3-0.2c-0.1,0-0.3-0.1-0.4-0.1c-0.1,0-0.3,0-0.4,0.1
			c-0.2,0.1-0.3,0.2-0.4,0.3s-0.2,0.3-0.2,0.4c0,0.1,0,0.2,0,0.3c0,0.1,0,0.2,0.1,0.3c0,0.1,0.1,0.2,0.2,0.3
			c0.1,0.1,0.2,0.2,0.3,0.2c0.1,0.1,0.3,0.1,0.4,0.1c0.1,0,0.3,0,0.5-0.1c0.1,0,0.2-0.1,0.3-0.2s0.2-0.2,0.3-0.3s0.1-0.2,0.1-0.4
			s0-0.3-0.1-0.4C127.8,160.9,127.7,160.8,127.6,160.7z"/>
		<path class="st2" d="M140.1,133.9c-10,10.7-24.3,17.4-40.1,17.4c-15.8,0-30-6.7-40.1-17.4l-19.2,19.2c14.9,15.6,36,25.3,59.3,25.3
			s44.3-9.7,59.3-25.3L140.1,133.9z M66.1,155.4l-1.3-0.8l0.5-0.9l-1.6-1L63,154l1.2,0.8l-0.7,1.2l-1.2-0.8l-0.9,1.4l1.6,1l0.7-1.1
			l1.3,0.8l-1.4,2.2l-4.9-3l0.7-1.1l0.6,0.4l2.3-3.8l-0.6-0.4l0.8-1.2l4.9,3L66.1,155.4z M76.9,160.3l-1.6-0.6l0.2-0.4
			c0-0.1,0-0.2,0-0.3s-0.1-0.2-0.1-0.3c-0.1-0.1-0.1-0.2-0.2-0.3c-0.1-0.1-0.2-0.1-0.3-0.2c-0.1,0-0.2-0.1-0.3-0.1
			c-0.1,0-0.2,0-0.3,0c-0.1,0-0.2,0.1-0.2,0.1c-0.1,0.1-0.1,0.1-0.2,0.3c-0.1,0.1-0.1,0.3,0,0.4c0,0.1,0.1,0.2,0.1,0.3
			c0.1,0.1,0.2,0.2,0.3,0.2c0.1,0.1,0.2,0.1,0.3,0.2l1.1,0.9c0.1,0.1,0.3,0.3,0.4,0.4c0.1,0.2,0.2,0.3,0.2,0.5s0.1,0.4,0.1,0.6
			c0,0.2-0.1,0.4-0.2,0.7c-0.1,0.3-0.3,0.6-0.5,0.8c-0.2,0.2-0.5,0.4-0.8,0.5c-0.3,0.1-0.6,0.2-1,0.1c-0.3,0-0.7-0.1-1.1-0.2
			c-0.3-0.1-0.5-0.2-0.7-0.4s-0.4-0.3-0.5-0.5c-0.1-0.2-0.3-0.4-0.3-0.6s-0.1-0.4-0.1-0.6l-0.5-0.2l0.5-1.3l1.6,0.6l-0.1,0.3
			c-0.1,0.1-0.1,0.3-0.1,0.4c0,0.1,0,0.3,0.1,0.4c0.1,0.1,0.1,0.2,0.2,0.3s0.3,0.2,0.4,0.3c0.3,0.1,0.5,0.1,0.7,0.1s0.3-0.2,0.4-0.4
			c0-0.1,0.1-0.2,0-0.3s-0.1-0.2-0.1-0.3s-0.1-0.2-0.2-0.2c-0.1-0.1-0.2-0.1-0.2-0.2l-0.9-0.7c-0.2-0.1-0.3-0.3-0.5-0.5
			c-0.1-0.2-0.2-0.4-0.3-0.6c-0.1-0.2-0.1-0.4-0.1-0.7c0-0.2,0.1-0.5,0.2-0.8c0.1-0.3,0.3-0.6,0.5-0.8c0.2-0.2,0.5-0.3,0.7-0.4
			s0.6-0.1,0.9-0.1s0.7,0.1,1,0.2c0.3,0.1,0.5,0.2,0.7,0.4c0.2,0.2,0.4,0.3,0.5,0.5c0.1,0.2,0.3,0.4,0.3,0.6
			c0.1,0.2,0.1,0.4,0.1,0.5l0.4,0.2L76.9,160.3z M89.2,163.1l-1.5-0.3l0.2-0.9l-1-0.2l-0.9,4.6l0.7,0.2l-0.3,1.3l-3-0.6l0.3-1.3
			l0.7,0.2l0.9-4.6l-0.9-0.2l-0.2,0.9l-1.5-0.3l0.4-2.2l6.4,1.3L89.2,163.1z M103.7,168.8l-0.1-1.3l0.8-0.1l-0.3-3.8l-1.1,0.7
			l-0.1-1.7l1.9-1.3l0.7,0l0.4,5.9l0.8-0.1l0.1,1.3L103.7,168.8z M117.8,162.6c0,0.1-0.1,0.3-0.1,0.4s-0.1,0.3-0.1,0.4l-1,3.5
			l-1.6,0.4l0.9-2.8c-0.1,0-0.2,0-0.2,0c-0.1,0-0.2,0-0.2,0c-0.3,0-0.5,0-0.8-0.1s-0.5-0.2-0.7-0.4s-0.4-0.3-0.5-0.6
			c-0.2-0.2-0.3-0.5-0.3-0.8c-0.1-0.3-0.1-0.7,0-1c0.1-0.3,0.2-0.6,0.4-0.9s0.4-0.5,0.7-0.7s0.6-0.3,0.9-0.4c0.3-0.1,0.7-0.1,1,0
			c0.3,0.1,0.6,0.2,0.9,0.3c0.3,0.2,0.5,0.4,0.7,0.6c0.2,0.3,0.3,0.5,0.4,0.9c0,0.2,0.1,0.3,0.1,0.5
			C117.8,162.4,117.8,162.5,117.8,162.6z M129.1,162.3c-0.1,0.3-0.3,0.5-0.6,0.8s-0.5,0.4-0.8,0.5c-0.3,0.1-0.6,0.2-1,0.2
			s-0.6-0.1-0.9-0.2c-0.3-0.1-0.5-0.3-0.8-0.5c-0.2-0.2-0.4-0.5-0.5-0.8c-0.1-0.1-0.1-0.3-0.1-0.4c0-0.1,0-0.3,0-0.4
			c0-0.1,0-0.3,0-0.4c0-0.1,0-0.3,0.1-0.5l0.5-3.7l1.5-0.6l-0.4,2.9c0.1,0,0.2-0.1,0.2-0.1c0.1,0,0.2,0,0.2-0.1
			c0.3-0.1,0.5-0.1,0.8,0c0.3,0,0.5,0.1,0.8,0.2s0.4,0.3,0.6,0.5c0.2,0.2,0.3,0.4,0.4,0.7c0.1,0.3,0.2,0.6,0.2,1
			C129.3,161.7,129.3,162,129.1,162.3z M140,156.7c-0.1,0.3-0.2,0.6-0.4,0.8c-0.2,0.2-0.4,0.5-0.7,0.6c-0.3,0.2-0.5,0.3-0.8,0.4
			c-0.3,0.1-0.6,0.1-0.8,0.1c-0.3,0-0.5-0.1-0.8-0.2c-0.3-0.1-0.5-0.3-0.7-0.6l1-1.1c0.1,0.1,0.2,0.2,0.3,0.3
			c0.1,0.1,0.2,0.1,0.3,0.1c0.1,0,0.2,0,0.4,0c0.1,0,0.2-0.1,0.4-0.1c0.1-0.1,0.2-0.2,0.3-0.3s0.1-0.2,0.2-0.4c0-0.1,0-0.3,0-0.4
			s-0.1-0.3-0.2-0.4c-0.1-0.1-0.2-0.2-0.3-0.3c-0.1-0.1-0.2-0.1-0.4-0.2c-0.1,0-0.3,0-0.4,0c-0.1,0-0.3,0.1-0.4,0.2
			c-0.2,0.1-0.3,0.2-0.4,0.3c-0.1,0.1-0.2,0.2-0.3,0.4l-1.2,0.5l-2-3.3l3.9-2.4l0.8,1.2l-2.7,1.7l0.7,1.2c0.1-0.1,0.2-0.3,0.3-0.4
			c0.1-0.1,0.3-0.2,0.5-0.3c0.3-0.2,0.6-0.3,0.9-0.4c0.3-0.1,0.6-0.1,0.9,0c0.3,0.1,0.6,0.2,0.8,0.3c0.3,0.2,0.5,0.4,0.7,0.7
			c0.2,0.3,0.3,0.7,0.4,1C140.1,156.1,140.1,156.4,140,156.7z"/>
	</g>
</g>
<g>
	<g>
		<path class="st6" d="M46.3,61.8l0.6-0.9l-5.3-3.8L40.9,58l-1.5-1.1l2.9-4.1c0.3-0.4,0.6-0.7,0.9-0.9s0.7-0.4,1.1-0.4
			c0.4-0.1,0.8-0.1,1.2,0c0.4,0.1,0.8,0.3,1.1,0.5c0.4,0.3,0.7,0.6,0.8,0.9s0.2,0.7,0.2,1.1c0.4-0.1,0.7-0.2,1.1-0.2
			c0.4,0,0.7,0.2,1.1,0.4c0.4,0.3,0.7,0.6,0.9,0.9s0.4,0.7,0.4,1.1c0.1,0.4,0.1,0.8,0,1.2c-0.1,0.4-0.3,0.8-0.5,1.1l-3,4.2
			L46.3,61.8z M42.8,55.3l1.9,1.3l0.9-1.3c0.1-0.1,0.1-0.2,0.1-0.3s0-0.3,0-0.4s-0.1-0.3-0.2-0.4c-0.1-0.1-0.2-0.2-0.3-0.3
			c-0.1-0.1-0.2-0.1-0.4-0.2c-0.1,0-0.3-0.1-0.4-0.1s-0.3,0-0.4,0.1s-0.2,0.1-0.3,0.2L42.8,55.3z M46.2,57.7l1.9,1.4l1-1.4
			c0.1-0.1,0.1-0.2,0.1-0.4c0-0.1,0-0.3,0-0.4c0-0.1-0.1-0.3-0.2-0.4c-0.1-0.1-0.2-0.2-0.3-0.3c-0.1-0.1-0.3-0.2-0.4-0.2
			S48,56,47.9,56c-0.1,0-0.3,0-0.4,0.1c-0.1,0.1-0.2,0.1-0.3,0.2L46.2,57.7z"/>
		<path class="st6" d="M66.2,41.8l0.8-0.6l-1.2-1L63.2,42l0.4,1.5l0.9-0.6l1,1.5l-3.2,2.1l-1-1.5l0.6-0.4L59.7,36l2.3-1.5l6.9,5.5
			l0.6-0.4l1,1.5l-3.2,2.1L66.2,41.8z M62.7,40.2l1.7-1.1l-2.7-2.2L62.7,40.2z"/>
		<path class="st6" d="M81.5,25.8l4.3-0.8l0.4,1.8L85.1,27l0.6,2.9l2.7-3.4L88,24.6l3.4-0.7l0.4,2L91,26l-2.8,3.5l3.8,2.6l0.8-0.2
			l0.4,2L90,34.6l-0.4-2L85.7,30l0.7,3.4l1.1-0.2l0.4,1.8l-4.3,0.8L83.1,34l1-0.2l-1.2-6.4l-1,0.2L81.5,25.8z"/>
		<path class="st6" d="M109.5,24.1l8,1.5l-0.6,3.4l-2.2-0.4l0.3-1.4l-2.6-0.5l-0.4,2l2,0.4l-0.4,1.9l-2-0.4l-0.4,2.3l2.6,0.5
			l0.3-1.8l2.2,0.4l-0.7,3.6l-8-1.5l0.3-1.8l1.1,0.2l1.2-6.2l-1.1-0.2L109.5,24.1z"/>
		<path class="st6" d="M134.4,32.3l4.6,2.9c0.4,0.3,0.8,0.6,1.1,1c0.3,0.4,0.4,0.7,0.5,1.1c0.1,0.4,0.1,0.7,0.1,1.1s-0.2,0.7-0.4,1
			c-0.2,0.3-0.4,0.5-0.6,0.7c-0.2,0.2-0.4,0.3-0.6,0.4s-0.5,0.2-0.7,0.2c-0.3,0-0.5,0-0.8,0c0.1,0.2,0.2,0.5,0.2,0.8s0,0.6-0.2,1
			l-0.4,1.3l0.7,0.5l-1.1,1.7l-2.5-1.6l1-2.3c0.1-0.3,0.2-0.5,0.2-0.7c0-0.2,0-0.4,0-0.6c0-0.2-0.1-0.4-0.3-0.5
			c-0.1-0.2-0.3-0.3-0.5-0.5l-0.7-0.5l-1.2,1.9l0.8,0.5l-1,1.6l-3.6-2.3l1-1.6l0.9,0.6l3.5-5.5l-0.9-0.6L134.4,32.3z M136.2,35.6
			l-1.3,2.1l1.1,0.7c0.2,0.1,0.4,0.2,0.6,0.3s0.4,0.1,0.6,0.1c0.2,0,0.3-0.1,0.5-0.1c0.1-0.1,0.3-0.2,0.4-0.4c0.2-0.3,0.3-0.7,0.1-1
			c-0.1-0.3-0.4-0.7-0.9-0.9L136.2,35.6z"/>
		<path class="st6" d="M155.1,49.3l2.6,3.5l-1.5,1.1l-0.5-0.7l-1.1,2.5l2.7-0.2l-0.6-0.8l1.5-1.1l2.6,3.5l-1.5,1.1l-0.4-0.6
			l-5.1-0.1l-1.9,1.4l0.7,1l-1.5,1.1l-2.7-3.7l1.5-1.1l0.7,0.9l2-1.4l1.7-4.7l-0.5-0.7L155.1,49.3z"/>
	</g>
	<g>
		<path class="st2" d="M39.7,102l-11.5,9.2l-15-2.5c2.6,17.1,10.4,32.5,21.9,44.4l19.2-19.2C46.2,125.4,40.9,114.3,39.7,102z"/>
		<path class="st2" d="M160.3,102l11.5,9.2l15-2.5c-2.6,17.1-10.4,32.5-21.9,44.4l-19.2-19.2C153.8,125.4,159.1,114.3,160.3,102z"/>
	</g>
	<path class="st6" d="M25.5,95c0-41.1,33.4-74.5,74.5-74.5c41.1,0,74.5,33.4,74.5,74.5h3c0-42.8-34.8-77.5-77.6-77.5
		c-42.8,0-77.5,34.8-77.6,77.5H25.5z"/>
	<path class="st6" d="M44.2,95c0-30.7,25-55.8,55.8-55.8c30.7,0,55.8,25,55.8,55.8h3c0-32.4-26.4-58.8-58.8-58.8
		c-32.4,0-58.8,26.4-58.8,58.8H44.2z"/>
	<path class="st7" d="M78,112"/>
	<path class="st6" d="M66.6,87.9c0,0,2,8.4,19.1,11.8c11.8,2.3,25.2,1.5,34.2-0.8c2.7-0.8,5-1.7,6.9-2.6c0.9-0.5,1.6-1,2.1-1.5
		c2.3-2.1,3.1-2.4,3.3-2c0.6-0.5,1.1-1,1.6-1.5c-0.2-0.2-0.7-0.6-1.3-0.8c-0.3-0.3-0.4-0.8-0.4-0.8s0.7-5.5-1.1-7s-3.8-2.8-3.8-3.6
		c0-0.7,0.1-4.9-1.5-6.6c-1.6-1.6-5.2-5.5-8.1-5.8s-2.6,0.4-2.9-0.4c-0.3-0.7,0.7-3.5-0.8-4.7c-1.5-1.3-12-9.1-13.1-10.5
		c-1.1-1.4-2.2-2.4-1-3.9c0,0-3.9,0.5-4.1,4.5c-0.2,3.9-0.3,7.2-2.8,8.8c-2.6,1.6-12.7,3.8-16.6,10.2c0,0,6-2.1,14.1-2.7
		c8.1-0.6,15.1-2.4,16.2-3.6c0,0-0.4,3-8,5.1c-7.6,2.1-21.8-0.5-26.8,10c0,0,5.1-3.9,13.7-4.3c8.6-0.4,26.6,0.4,29.3-6.4
		c0,0-1.8,6.6-8.4,7.1c-6.6,0.5-17.7,0.9-17.7,0.9s15.2,2.7,14.3,3.8c-0.9,1.1-8.9,0-16.9,0s-16.2,0.4-18.4,5.2c0,0,5-2.8,16.4-1.7
		c11.4,1.1,30.1,5.2,40.5,0.5c0,0-2.8,4.5-15.9,3.6c-13-0.9-29.5-1.7-30.2,0.5s0.3,3.4,7.7,5.1c7.4,1.7,25.2,3,25.2,3
		S81.6,103.5,66.6,87.9z"/>
	<path class="st2" d="M71.1,96.4c11.8,10,28.1,12.2,28.1,12.2v31.2c-13.1-0.1-19.3-4.8-19.3-4.8L66.2,92.4l12.5,45.3
		c4.2,3.1,12.4,5.2,21.7,5.2c9.4,0,17.5-2.1,21.7-5.2l11.8-43.8C103.5,113.3,80.7,102.9,71.1,96.4z"/>
	<g>
		<path class="st2" d="M116.3,161.8c-0.1-0.1-0.2-0.2-0.3-0.3c-0.1-0.1-0.2-0.1-0.4-0.2c-0.1,0-0.3,0-0.5,0c-0.1,0-0.3,0.1-0.4,0.1
			s-0.2,0.2-0.3,0.3c-0.1,0.1-0.1,0.2-0.2,0.4c0,0.1,0,0.3,0,0.4c0,0.1,0.1,0.3,0.2,0.4c0.1,0.1,0.2,0.2,0.3,0.3
			c0.1,0.1,0.2,0.1,0.4,0.1c0.1,0,0.3,0,0.4,0c0.2,0,0.3-0.1,0.5-0.2s0.2-0.2,0.3-0.4c0-0.1,0-0.2,0.1-0.3c0-0.1,0-0.2,0-0.3
			C116.4,162,116.3,161.9,116.3,161.8z"/>
		<path class="st2" d="M127.6,160.7c-0.1-0.1-0.2-0.2-0.3-0.2c-0.1,0-0.3-0.1-0.4-0.1c-0.1,0-0.3,0-0.4,0.1
			c-0.2,0.1-0.3,0.2-0.4,0.3s-0.2,0.3-0.2,0.4c0,0.1,0,0.2,0,0.3c0,0.1,0,0.2,0.1,0.3c0,0.1,0.1,0.2,0.2,0.3
			c0.1,0.1,0.2,0.2,0.3,0.2c0.1,0.1,0.3,0.1,0.4,0.1c0.1,0,0.3,0,0.5-0.1c0.1,0,0.2-0.1,0.3-0.2s0.2-0.2,0.3-0.3s0.1-0.2,0.1-0.4
			s0-0.3-0.1-0.4C127.8,160.9,127.7,160.8,127.6,160.7z"/>
		<path class="st2" d="M140.1,133.9c-10,10.7-24.3,17.4-40.1,17.4c-15.8,0-30-6.7-40.1-17.4l-19.2,19.2c14.9,15.6,36,25.3,59.3,25.3
			s44.3-9.7,59.3-25.3L140.1,133.9z M66.1,155.4l-1.3-0.8l0.5-0.9l-1.6-1L63,154l1.2,0.8l-0.7,1.2l-1.2-0.8l-0.9,1.4l1.6,1l0.7-1.1
			l1.3,0.8l-1.4,2.2l-4.9-3l0.7-1.1l0.6,0.4l2.3-3.8l-0.6-0.4l0.8-1.2l4.9,3L66.1,155.4z M76.9,160.3l-1.6-0.6l0.2-0.4
			c0-0.1,0-0.2,0-0.3s-0.1-0.2-0.1-0.3c-0.1-0.1-0.1-0.2-0.2-0.3c-0.1-0.1-0.2-0.1-0.3-0.2c-0.1,0-0.2-0.1-0.3-0.1
			c-0.1,0-0.2,0-0.3,0c-0.1,0-0.2,0.1-0.2,0.1c-0.1,0.1-0.1,0.1-0.2,0.3c-0.1,0.1-0.1,0.3,0,0.4c0,0.1,0.1,0.2,0.1,0.3
			c0.1,0.1,0.2,0.2,0.3,0.2c0.1,0.1,0.2,0.1,0.3,0.2l1.1,0.9c0.1,0.1,0.3,0.3,0.4,0.4c0.1,0.2,0.2,0.3,0.2,0.5s0.1,0.4,0.1,0.6
			c0,0.2-0.1,0.4-0.2,0.7c-0.1,0.3-0.3,0.6-0.5,0.8c-0.2,0.2-0.5,0.4-0.8,0.5c-0.3,0.1-0.6,0.2-1,0.1c-0.3,0-0.7-0.1-1.1-0.2
			c-0.3-0.1-0.5-0.2-0.7-0.4s-0.4-0.3-0.5-0.5c-0.1-0.2-0.3-0.4-0.3-0.6s-0.1-0.4-0.1-0.6l-0.5-0.2l0.5-1.3l1.6,0.6l-0.1,0.3
			c-0.1,0.1-0.1,0.3-0.1,0.4c0,0.1,0,0.3,0.1,0.4c0.1,0.1,0.1,0.2,0.2,0.3s0.3,0.2,0.4,0.3c0.3,0.1,0.5,0.1,0.7,0.1s0.3-0.2,0.4-0.4
			c0-0.1,0.1-0.2,0-0.3s-0.1-0.2-0.1-0.3s-0.1-0.2-0.2-0.2c-0.1-0.1-0.2-0.1-0.2-0.2l-0.9-0.7c-0.2-0.1-0.3-0.3-0.5-0.5
			c-0.1-0.2-0.2-0.4-0.3-0.6c-0.1-0.2-0.1-0.4-0.1-0.7c0-0.2,0.1-0.5,0.2-0.8c0.1-0.3,0.3-0.6,0.5-0.8c0.2-0.2,0.5-0.3,0.7-0.4
			s0.6-0.1,0.9-0.1s0.7,0.1,1,0.2c0.3,0.1,0.5,0.2,0.7,0.4c0.2,0.2,0.4,0.3,0.5,0.5c0.1,0.2,0.3,0.4,0.3,0.6
			c0.1,0.2,0.1,0.4,0.1,0.5l0.4,0.2L76.9,160.3z M89.2,163.1l-1.5-0.3l0.2-0.9l-1-0.2l-0.9,4.6l0.7,0.2l-0.3,1.3l-3-0.6l0.3-1.3
			l0.7,0.2l0.9-4.6l-0.9-0.2l-0.2,0.9l-1.5-0.3l0.4-2.2l6.4,1.3L89.2,163.1z M103.7,168.8l-0.1-1.3l0.8-0.1l-0.3-3.8l-1.1,0.7
			l-0.1-1.7l1.9-1.3l0.7,0l0.4,5.9l0.8-0.1l0.1,1.3L103.7,168.8z M117.8,162.6c0,0.1-0.1,0.3-0.1,0.4s-0.1,0.3-0.1,0.4l-1,3.5
			l-1.6,0.4l0.9-2.8c-0.1,0-0.2,0-0.2,0c-0.1,0-0.2,0-0.2,0c-0.3,0-0.5,0-0.8-0.1s-0.5-0.2-0.7-0.4s-0.4-0.3-0.5-0.6
			c-0.2-0.2-0.3-0.5-0.3-0.8c-0.1-0.3-0.1-0.7,0-1c0.1-0.3,0.2-0.6,0.4-0.9s0.4-0.5,0.7-0.7s0.6-0.3,0.9-0.4c0.3-0.1,0.7-0.1,1,0
			c0.3,0.1,0.6,0.2,0.9,0.3c0.3,0.2,0.5,0.4,0.7,0.6c0.2,0.3,0.3,0.5,0.4,0.9c0,0.2,0.1,0.3,0.1,0.5
			C117.8,162.4,117.8,162.5,117.8,162.6z M129.1,162.3c-0.1,0.3-0.3,0.5-0.6,0.8s-0.5,0.4-0.8,0.5c-0.3,0.1-0.6,0.2-1,0.2
			s-0.6-0.1-0.9-0.2c-0.3-0.1-0.5-0.3-0.8-0.5c-0.2-0.2-0.4-0.5-0.5-0.8c-0.1-0.1-0.1-0.3-0.1-0.4c0-0.1,0-0.3,0-0.4
			c0-0.1,0-0.3,0-0.4c0-0.1,0-0.3,0.1-0.5l0.5-3.7l1.5-0.6l-0.4,2.9c0.1,0,0.2-0.1,0.2-0.1c0.1,0,0.2,0,0.2-0.1
			c0.3-0.1,0.5-0.1,0.8,0c0.3,0,0.5,0.1,0.8,0.2s0.4,0.3,0.6,0.5c0.2,0.2,0.3,0.4,0.4,0.7c0.1,0.3,0.2,0.6,0.2,1
			C129.3,161.7,129.3,162,129.1,162.3z M140,156.7c-0.1,0.3-0.2,0.6-0.4,0.8c-0.2,0.2-0.4,0.5-0.7,0.6c-0.3,0.2-0.5,0.3-0.8,0.4
			c-0.3,0.1-0.6,0.1-0.8,0.1c-0.3,0-0.5-0.1-0.8-0.2c-0.3-0.1-0.5-0.3-0.7-0.6l1-1.1c0.1,0.1,0.2,0.2,0.3,0.3
			c0.1,0.1,0.2,0.1,0.3,0.1c0.1,0,0.2,0,0.4,0c0.1,0,0.2-0.1,0.4-0.1c0.1-0.1,0.2-0.2,0.3-0.3s0.1-0.2,0.2-0.4c0-0.1,0-0.3,0-0.4
			s-0.1-0.3-0.2-0.4c-0.1-0.1-0.2-0.2-0.3-0.3c-0.1-0.1-0.2-0.1-0.4-0.2c-0.1,0-0.3,0-0.4,0c-0.1,0-0.3,0.1-0.4,0.2
			c-0.2,0.1-0.3,0.2-0.4,0.3c-0.1,0.1-0.2,0.2-0.3,0.4l-1.2,0.5l-2-3.3l3.9-2.4l0.8,1.2l-2.7,1.7l0.7,1.2c0.1-0.1,0.2-0.3,0.3-0.4
			c0.1-0.1,0.3-0.2,0.5-0.3c0.3-0.2,0.6-0.3,0.9-0.4c0.3-0.1,0.6-0.1,0.9,0c0.3,0.1,0.6,0.2,0.8,0.3c0.3,0.2,0.5,0.4,0.7,0.7
			c0.2,0.3,0.3,0.7,0.4,1C140.1,156.1,140.1,156.4,140,156.7z"/>
	</g>
</g>
<g class="st0">
	<g class="st1">
		<path class="st8" d="M477.3,61.8l0.6-0.9l-5.3-3.8l-0.6,0.9l-1.5-1.1l2.9-4.1c0.3-0.4,0.6-0.7,0.9-0.9s0.7-0.4,1.1-0.4
			c0.4-0.1,0.8-0.1,1.2,0c0.4,0.1,0.8,0.3,1.1,0.5c0.4,0.3,0.7,0.6,0.8,0.9s0.2,0.7,0.2,1.1c0.4-0.1,0.7-0.2,1.1-0.2
			c0.4,0,0.7,0.2,1.1,0.4c0.4,0.3,0.7,0.6,0.9,0.9s0.4,0.7,0.4,1.1c0.1,0.4,0.1,0.8,0,1.2c-0.1,0.4-0.3,0.8-0.5,1.1l-3,4.2
			L477.3,61.8z M473.8,55.3l1.9,1.3l0.9-1.3c0.1-0.1,0.1-0.2,0.1-0.3s0-0.3,0-0.4s-0.1-0.3-0.2-0.4c-0.1-0.1-0.2-0.2-0.3-0.3
			c-0.1-0.1-0.2-0.1-0.4-0.2c-0.1,0-0.3-0.1-0.4-0.1s-0.3,0-0.4,0.1s-0.2,0.1-0.3,0.2L473.8,55.3z M477.2,57.7l1.9,1.4l1-1.4
			c0.1-0.1,0.1-0.2,0.1-0.4c0-0.1,0-0.3,0-0.4c0-0.1-0.1-0.3-0.2-0.4c-0.1-0.1-0.2-0.2-0.3-0.3c-0.1-0.1-0.3-0.2-0.4-0.2
			s-0.3-0.1-0.4,0c-0.1,0-0.3,0-0.4,0.1c-0.1,0.1-0.2,0.1-0.3,0.2L477.2,57.7z"/>
		<path class="st8" d="M497.2,41.8l0.8-0.6l-1.2-1l-2.6,1.7l0.4,1.5l0.9-0.6l1,1.5l-3.2,2.1l-1-1.5l0.6-0.4l-2.3-8.5l2.3-1.5
			l6.9,5.5l0.6-0.4l1,1.5l-3.2,2.1L497.2,41.8z M493.7,40.2l1.7-1.1l-2.7-2.2L493.7,40.2z"/>
		<path class="st8" d="M512.5,25.8l4.3-0.8l0.4,1.8l-1.1,0.2l0.6,2.9l2.7-3.4l-0.4-1.9l3.4-0.7l0.4,2L522,26l-2.8,3.5l3.8,2.6
			l0.8-0.2l0.4,2l-3.3,0.6l-0.4-2l-3.9-2.6l0.7,3.4l1.1-0.2l0.4,1.8l-4.3,0.8l-0.4-1.8l1-0.2l-1.2-6.4l-1,0.2L512.5,25.8z"/>
		<path class="st8" d="M540.5,24.1l8,1.5l-0.6,3.4l-2.2-0.4l0.3-1.4l-2.6-0.5l-0.4,2l2,0.4l-0.4,1.9l-2-0.4l-0.4,2.3l2.6,0.5
			l0.3-1.8l2.2,0.4l-0.7,3.6l-8-1.5l0.3-1.8l1.1,0.2l1.2-6.2l-1.1-0.2L540.5,24.1z"/>
		<path class="st8" d="M565.4,32.3l4.6,2.9c0.4,0.3,0.8,0.6,1.1,1c0.3,0.4,0.4,0.7,0.5,1.1c0.1,0.4,0.1,0.7,0.1,1.1s-0.2,0.7-0.4,1
			c-0.2,0.3-0.4,0.5-0.6,0.7c-0.2,0.2-0.4,0.3-0.6,0.4s-0.5,0.2-0.7,0.2c-0.3,0-0.5,0-0.8,0c0.1,0.2,0.2,0.5,0.2,0.8s0,0.6-0.2,1
			l-0.4,1.3l0.7,0.5l-1.1,1.7l-2.5-1.6l1-2.3c0.1-0.3,0.2-0.5,0.2-0.7c0-0.2,0-0.4,0-0.6c0-0.2-0.1-0.4-0.3-0.5
			c-0.1-0.2-0.3-0.3-0.5-0.5l-0.7-0.5l-1.2,1.9l0.8,0.5l-1,1.6l-3.6-2.3l1-1.6l0.9,0.6l3.5-5.5l-0.9-0.6L565.4,32.3z M567.2,35.6
			l-1.3,2.1l1.1,0.7c0.2,0.1,0.4,0.2,0.6,0.3s0.4,0.1,0.6,0.1c0.2,0,0.3-0.1,0.5-0.1c0.1-0.1,0.3-0.2,0.4-0.4c0.2-0.3,0.3-0.7,0.1-1
			c-0.1-0.3-0.4-0.7-0.9-0.9L567.2,35.6z"/>
		<path class="st8" d="M586.1,49.3l2.6,3.5l-1.5,1.1l-0.5-0.7l-1.1,2.5l2.7-0.2l-0.6-0.8l1.5-1.1l2.6,3.5l-1.5,1.1l-0.4-0.6
			l-5.1-0.1l-1.9,1.4l0.7,1l-1.5,1.1l-2.7-3.7l1.5-1.1l0.7,0.9l2-1.4l1.7-4.7l-0.5-0.7L586.1,49.3z"/>
	</g>
	<g class="st1">
		<path class="st2" d="M470.7,102l-11.5,9.2l-15-2.5c2.6,17.1,10.4,32.5,21.9,44.4l19.2-19.2C477.2,125.4,471.9,114.3,470.7,102z"/>
		<path class="st2" d="M591.3,102l11.5,9.2l15-2.5c-2.6,17.1-10.4,32.5-21.9,44.4l-19.2-19.2C584.8,125.4,590.1,114.3,591.3,102z"/>
	</g>
	<path class="st9" d="M456.5,95c0-41.1,33.4-74.5,74.5-74.5c41.1,0,74.5,33.4,74.5,74.5h3c0-42.8-34.8-77.5-77.6-77.5
		c-42.8,0-77.5,34.8-77.6,77.5H456.5z"/>
	<path class="st9" d="M475.2,95c0-30.7,25-55.8,55.8-55.8c30.7,0,55.8,25,55.8,55.8h3c0-32.4-26.4-58.8-58.8-58.8
		c-32.4,0-58.8,26.4-58.8,58.8H475.2z"/>
	<path class="st4" d="M509,112"/>
	<path class="st9" d="M497.6,87.9c0,0,2,8.4,19.1,11.8c11.8,2.3,25.2,1.5,34.2-0.8c2.7-0.8,5-1.7,6.9-2.6c0.9-0.5,1.6-1,2.1-1.5
		c2.3-2.1,3.1-2.4,3.3-2c0.6-0.5,1.1-1,1.6-1.5c-0.2-0.2-0.7-0.6-1.3-0.8c-0.3-0.3-0.4-0.8-0.4-0.8s0.7-5.5-1.1-7
		c-1.8-1.5-3.8-2.8-3.8-3.6c0-0.7,0.1-4.9-1.5-6.6s-5.2-5.5-8.1-5.8c-2.9-0.4-2.6,0.4-2.9-0.4c-0.3-0.7,0.7-3.5-0.8-4.7
		c-1.5-1.3-12-9.1-13.1-10.5c-1.1-1.4-2.2-2.4-1-3.9c0,0-3.9,0.5-4.1,4.5c-0.2,3.9-0.3,7.2-2.8,8.8c-2.6,1.6-12.7,3.8-16.6,10.2
		c0,0,6-2.1,14.1-2.7c8.1-0.6,15.1-2.4,16.2-3.6c0,0-0.4,3-8,5.1c-7.6,2.1-21.8-0.5-26.8,10c0,0,5.1-3.9,13.7-4.3
		c8.6-0.4,26.6,0.4,29.3-6.4c0,0-1.8,6.6-8.4,7.1c-6.6,0.5-17.7,0.9-17.7,0.9s15.2,2.7,14.3,3.8c-0.9,1.1-8.9,0-16.9,0
		c-8,0-16.2,0.4-18.4,5.2c0,0,5-2.8,16.4-1.7c11.4,1.1,30.1,5.2,40.5,0.5c0,0-2.8,4.5-15.9,3.6c-13-0.9-29.5-1.7-30.2,0.5
		c-0.6,2.3,0.3,3.4,7.7,5.1c7.4,1.7,25.2,3,25.2,3S512.6,103.5,497.6,87.9z"/>
	<path class="st3" d="M502.1,96.4c11.8,10,28.1,12.2,28.1,12.2v31.2c-13.1-0.1-19.3-4.8-19.3-4.8l-13.8-42.6l12.5,45.3
		c4.2,3.1,12.4,5.2,21.7,5.2c9.4,0,17.5-2.1,21.7-5.2l11.8-43.8C534.5,113.3,511.7,102.9,502.1,96.4z"/>
	<g class="st1">
		<path class="st2" d="M547.3,161.8c-0.1-0.1-0.2-0.2-0.3-0.3c-0.1-0.1-0.2-0.1-0.4-0.2c-0.1,0-0.3,0-0.5,0c-0.1,0-0.3,0.1-0.4,0.1
			s-0.2,0.2-0.3,0.3c-0.1,0.1-0.1,0.2-0.2,0.4c0,0.1,0,0.3,0,0.4c0,0.1,0.1,0.3,0.2,0.4c0.1,0.1,0.2,0.2,0.3,0.3
			c0.1,0.1,0.2,0.1,0.4,0.1c0.1,0,0.3,0,0.4,0c0.2,0,0.3-0.1,0.5-0.2s0.2-0.2,0.3-0.4c0-0.1,0-0.2,0.1-0.3c0-0.1,0-0.2,0-0.3
			C547.4,162,547.3,161.9,547.3,161.8z"/>
		<path class="st2" d="M558.6,160.7c-0.1-0.1-0.2-0.2-0.3-0.2c-0.1,0-0.3-0.1-0.4-0.1c-0.1,0-0.3,0-0.4,0.1
			c-0.2,0.1-0.3,0.2-0.4,0.3s-0.2,0.3-0.2,0.4c0,0.1,0,0.2,0,0.3c0,0.1,0,0.2,0.1,0.3c0,0.1,0.1,0.2,0.2,0.3
			c0.1,0.1,0.2,0.2,0.3,0.2c0.1,0.1,0.3,0.1,0.4,0.1c0.1,0,0.3,0,0.5-0.1c0.1,0,0.2-0.1,0.3-0.2s0.2-0.2,0.3-0.3s0.1-0.2,0.1-0.4
			s0-0.3-0.1-0.4C558.8,160.9,558.7,160.8,558.6,160.7z"/>
		<path class="st2" d="M571.1,133.9c-10,10.7-24.3,17.4-40.1,17.4c-15.8,0-30-6.7-40.1-17.4l-19.2,19.2c14.9,15.6,36,25.3,59.3,25.3
			s44.3-9.7,59.3-25.3L571.1,133.9z M497.1,155.4l-1.3-0.8l0.5-0.9l-1.6-1L494,154l1.2,0.8l-0.7,1.2l-1.2-0.8l-0.9,1.4l1.6,1
			l0.7-1.1l1.3,0.8l-1.4,2.2l-4.9-3l0.7-1.1l0.6,0.4l2.3-3.8l-0.6-0.4l0.8-1.2l4.9,3L497.1,155.4z M507.9,160.3l-1.6-0.6l0.2-0.4
			c0-0.1,0-0.2,0-0.3s-0.1-0.2-0.1-0.3c-0.1-0.1-0.1-0.2-0.2-0.3c-0.1-0.1-0.2-0.1-0.3-0.2c-0.1,0-0.2-0.1-0.3-0.1
			c-0.1,0-0.2,0-0.3,0c-0.1,0-0.2,0.1-0.2,0.1c-0.1,0.1-0.1,0.1-0.2,0.3c-0.1,0.1-0.1,0.3,0,0.4c0,0.1,0.1,0.2,0.1,0.3
			c0.1,0.1,0.2,0.2,0.3,0.2c0.1,0.1,0.2,0.1,0.3,0.2l1.1,0.9c0.1,0.1,0.3,0.3,0.4,0.4c0.1,0.2,0.2,0.3,0.2,0.5s0.1,0.4,0.1,0.6
			c0,0.2-0.1,0.4-0.2,0.7c-0.1,0.3-0.3,0.6-0.5,0.8c-0.2,0.2-0.5,0.4-0.8,0.5c-0.3,0.1-0.6,0.2-1,0.1c-0.3,0-0.7-0.1-1.1-0.2
			c-0.3-0.1-0.5-0.2-0.7-0.4s-0.4-0.3-0.5-0.5c-0.1-0.2-0.3-0.4-0.3-0.6s-0.1-0.4-0.1-0.6l-0.5-0.2l0.5-1.3l1.6,0.6l-0.1,0.3
			c-0.1,0.1-0.1,0.3-0.1,0.4c0,0.1,0,0.3,0.1,0.4c0.1,0.1,0.1,0.2,0.2,0.3s0.3,0.2,0.4,0.3c0.3,0.1,0.5,0.1,0.7,0.1s0.3-0.2,0.4-0.4
			c0-0.1,0.1-0.2,0-0.3s-0.1-0.2-0.1-0.3s-0.1-0.2-0.2-0.2c-0.1-0.1-0.2-0.1-0.2-0.2l-0.9-0.7c-0.2-0.1-0.3-0.3-0.5-0.5
			c-0.1-0.2-0.2-0.4-0.3-0.6c-0.1-0.2-0.1-0.4-0.1-0.7c0-0.2,0.1-0.5,0.2-0.8c0.1-0.3,0.3-0.6,0.5-0.8c0.2-0.2,0.5-0.3,0.7-0.4
			s0.6-0.1,0.9-0.1s0.7,0.1,1,0.2c0.3,0.1,0.5,0.2,0.7,0.4c0.2,0.2,0.4,0.3,0.5,0.5c0.1,0.2,0.3,0.4,0.3,0.6
			c0.1,0.2,0.1,0.4,0.1,0.5l0.4,0.2L507.9,160.3z M520.2,163.1l-1.5-0.3l0.2-0.9l-1-0.2l-0.9,4.6l0.7,0.2l-0.3,1.3l-3-0.6l0.3-1.3
			l0.7,0.2l0.9-4.6l-0.9-0.2l-0.2,0.9l-1.5-0.3l0.4-2.2l6.4,1.3L520.2,163.1z M534.7,168.8l-0.1-1.3l0.8-0.1l-0.3-3.8l-1.1,0.7
			l-0.1-1.7l1.9-1.3l0.7,0l0.4,5.9l0.8-0.1l0.1,1.3L534.7,168.8z M548.8,162.6c0,0.1-0.1,0.3-0.1,0.4s-0.1,0.3-0.1,0.4l-1,3.5
			l-1.6,0.4l0.9-2.8c-0.1,0-0.2,0-0.2,0c-0.1,0-0.2,0-0.2,0c-0.3,0-0.5,0-0.8-0.1s-0.5-0.2-0.7-0.4s-0.4-0.3-0.5-0.6
			c-0.2-0.2-0.3-0.5-0.3-0.8c-0.1-0.3-0.1-0.7,0-1c0.1-0.3,0.2-0.6,0.4-0.9s0.4-0.5,0.7-0.7s0.6-0.3,0.9-0.4c0.3-0.1,0.7-0.1,1,0
			c0.3,0.1,0.6,0.2,0.9,0.3c0.3,0.2,0.5,0.4,0.7,0.6c0.2,0.3,0.3,0.5,0.4,0.9c0,0.2,0.1,0.3,0.1,0.5
			C548.8,162.4,548.8,162.5,548.8,162.6z M560.1,162.3c-0.1,0.3-0.3,0.5-0.6,0.8s-0.5,0.4-0.8,0.5c-0.3,0.1-0.6,0.2-1,0.2
			s-0.6-0.1-0.9-0.2c-0.3-0.1-0.5-0.3-0.8-0.5c-0.2-0.2-0.4-0.5-0.5-0.8c-0.1-0.1-0.1-0.3-0.1-0.4c0-0.1,0-0.3,0-0.4
			c0-0.1,0-0.3,0-0.4c0-0.1,0-0.3,0.1-0.5l0.5-3.7l1.5-0.6l-0.4,2.9c0.1,0,0.2-0.1,0.2-0.1c0.1,0,0.2,0,0.2-0.1
			c0.3-0.1,0.5-0.1,0.8,0c0.3,0,0.5,0.1,0.8,0.2s0.4,0.3,0.6,0.5c0.2,0.2,0.3,0.4,0.4,0.7c0.1,0.3,0.2,0.6,0.2,1
			C560.3,161.7,560.3,162,560.1,162.3z M571,156.7c-0.1,0.3-0.2,0.6-0.4,0.8c-0.2,0.2-0.4,0.5-0.7,0.6c-0.3,0.2-0.5,0.3-0.8,0.4
			c-0.3,0.1-0.6,0.1-0.8,0.1c-0.3,0-0.5-0.1-0.8-0.2c-0.3-0.1-0.5-0.3-0.7-0.6l1-1.1c0.1,0.1,0.2,0.2,0.3,0.3
			c0.1,0.1,0.2,0.1,0.3,0.1c0.1,0,0.2,0,0.4,0c0.1,0,0.2-0.1,0.4-0.1c0.1-0.1,0.2-0.2,0.3-0.3s0.1-0.2,0.2-0.4c0-0.1,0-0.3,0-0.4
			s-0.1-0.3-0.2-0.4c-0.1-0.1-0.2-0.2-0.3-0.3c-0.1-0.1-0.2-0.1-0.4-0.2c-0.1,0-0.3,0-0.4,0c-0.1,0-0.3,0.1-0.4,0.2
			c-0.2,0.1-0.3,0.2-0.4,0.3c-0.1,0.1-0.2,0.2-0.3,0.4l-1.2,0.5l-2-3.3l3.9-2.4l0.8,1.2l-2.7,1.7l0.7,1.2c0.1-0.1,0.2-0.3,0.3-0.4
			c0.1-0.1,0.3-0.2,0.5-0.3c0.3-0.2,0.6-0.3,0.9-0.4c0.3-0.1,0.6-0.1,0.9,0c0.3,0.1,0.6,0.2,0.8,0.3c0.3,0.2,0.5,0.4,0.7,0.7
			c0.2,0.3,0.3,0.7,0.4,1C571.1,156.1,571.1,156.4,571,156.7z"/>
	</g>
</g>
<g>
</g>
<g>
</g>
<g>
</g>
<g>
</g>
<g>
</g>
<g>
</g>
<g>
</g>
<g>
</g>
<g>
</g>
<g>
</g>
<g>
</g>
<g>
</g>
<g>
</g>
<g>
</g>
<g>
</g>
</svg>
